ffmpeg started on 2016-12-07 at 19:57:17
Report written to "Output/x264/results/ffmpeg/sintelslower1500k.log"
Command line:
Tools/ffmpeg/ffmpeg -benchmark -y -i Input/y4m/sintel.y4m -c:v libx264 -preset slower -b:v 1500k -an Output/x264/encoded/sintelslower1500k.mkv
ffmpeg version N-82227-gdb23fde Copyright (c) 2000-2016 the FFmpeg developers
  built with gcc 5.4.0 (Ubuntu 5.4.0-6ubuntu1~16.04.2) 20160609
  configuration: --prefix=/home/jaroslav/ffmpeg_build --pkg-config-flags=--static --extra-cflags=-I/home/jaroslav/ffmpeg_build/include --extra-ldflags=-L/home/jaroslav/ffmpeg_build/lib --bindir=/home/jaroslav/bin --enable-gpl --enable-libass --enable-libfdk-aac --enable-libfreetype --enable-libmp3lame --enable-libopus --enable-libtheora --enable-libvorbis --enable-libvpx --enable-libx264 --enable-libx265 --enable-nvenc --enable-libmfx --enable-libxvid --enable-libgsm --enable-libopencore-amrnb --enable-version3 --enable-nonfree
  libavutil      55. 35.100 / 55. 35.100
  libavcodec     57. 66.101 / 57. 66.101
  libavformat    57. 57.100 / 57. 57.100
  libavdevice    57.  2.100 / 57.  2.100
  libavfilter     6. 66.100 /  6. 66.100
  libswscale      4.  3.100 /  4.  3.100
  libswresample   2.  4.100 /  2.  4.100
  libpostproc    54.  2.100 / 54.  2.100
Input #0, yuv4mpegpipe, from 'Input/y4m/sintel.y4m':
  Duration: 00:00:20.83, start: 0.000000, bitrate: 2057307 kb/s
    Stream #0:0: Video: rawvideo (I420 / 0x30323449), yuv420p(progressive), 4096x1744, SAR 1:1 DAR 256:109, 24 fps, 24 tbr, 24 tbn, 24 tbc
[libx264 @ 0x31051c0] using SAR=1/1
[libx264 @ 0x31051c0] DPB size (8 frames, 223232 mbs) > level limit (6 frames, 184320 mbs)
[libx264 @ 0x31051c0] using cpu capabilities: MMX2 SSE2Fast SSSE3 SSE4.2 AVX FMA3 AVX2 LZCNT BMI2
[libx264 @ 0x31051c0] profile High, level 5.2
[libx264 @ 0x31051c0] 264 - core 148 - H.264/MPEG-4 AVC codec - Copyleft 2003-2016 - http://www.videolan.org/x264.html - options: cabac=1 ref=8 deblock=1:0:0 analyse=0x3:0x133 me=umh subme=9 psy=1 psy_rd=1.00:0.00 mixed_ref=1 me_range=16 chroma_me=1 trellis=2 8x8dct=1 cqm=0 deadzone=21,11 fast_pskip=1 chroma_qp_offset=-2 threads=6 lookahead_threads=1 sliced_threads=0 nr=0 decimate=1 interlaced=0 bluray_compat=0 constrained_intra=0 bframes=3 b_pyramid=2 b_adapt=2 b_bias=0 direct=3 weightb=1 open_gop=0 weightp=2 keyint=250 keyint_min=24 scenecut=40 intra_refresh=0 rc_lookahead=60 rc=abr mbtree=1 bitrate=1500 ratetol=1.0 qcomp=0.60 qpmin=0 qpmax=69 qpstep=4 ip_ratio=1.40 aq=1:1.00
Output #0, matroska, to 'Output/x264/encoded/sintelslower1500k.mkv':
  Metadata:
    encoder         : Lavf57.57.100
    Stream #0:0: Video: h264 (libx264) (H264 / 0x34363248), yuv420p, 4096x1744 [SAR 1:1 DAR 256:109], q=-1--1, 1500 kb/s, 24 fps, 1k tbn, 24 tbc
    Metadata:
      encoder         : Lavc57.66.101 libx264
    Side data:
      cpb: bitrate max/min/avg: 0/0/1500000 buffer size: 0 vbv_delay: -1
Stream mapping:
  Stream #0:0 -> #0:0 (rawvideo (native) -> h264 (libx264))
Press [q] to stop, [?] for help
frame=   10 fps=0.0 q=0.0 size=       0kB time=00:00:00.00 bitrate=N/A speed=   0x    frame=   19 fps= 18 q=0.0 size=       0kB time=00:00:00.00 bitrate=N/A speed=   0x    frame=   28 fps= 18 q=0.0 size=       0kB time=00:00:00.00 bitrate=N/A speed=   0x    frame=   37 fps= 18 q=0.0 size=       0kB time=00:00:00.00 bitrate=N/A speed=   0x    frame=   46 fps= 18 q=0.0 size=       0kB time=00:00:00.00 bitrate=N/A speed=   0x    frame=   55 fps= 18 q=0.0 size=       0kB time=00:00:00.00 bitrate=N/A speed=   0x    frame=   64 fps= 18 q=0.0 size=       0kB time=00:00:00.00 bitrate=N/A speed=   0x    frame=   67 fps=6.5 q=0.0 size=       0kB time=00:00:00.00 bitrate=N/A speed=   0x    frame=   71 fps=6.4 q=41.0 size=       1kB time=-00:00:00.08 bitrate=N/A speed=N/A    frame=   74 fps=6.4 q=45.0 size=       1kB time=00:00:00.04 bitrate= 136.9kbits/s speed=0.00371x    frame=   76 fps=6.3 q=56.0 size=       1kB time=00:00:00.12 bitrate=  46.7kbits/s speed=0.0104x    frame=   78 fps=6.1 q=56.0 size=       1kB time=00:00:00.20 bitrate=  28.2kbits/s speed=0.0165x    frame=   79 fps=5.9 q=57.0 size=       1kB time=00:00:00.25 bitrate=  23.5kbits/s speed=0.0186x    frame=   81 fps=5.8 q=56.0 size=       1kB time=00:00:00.33 bitrate=  17.6kbits/s speed=0.0238x    frame=   83 fps=5.7 q=57.0 size=       1kB time=00:00:00.41 bitrate=  14.1kbits/s speed=0.0287x    frame=   85 fps=5.4 q=57.0 size=       1kB time=00:00:00.50 bitrate=  11.8kbits/s speed=0.0318x    frame=   88 fps=5.4 q=59.0 size=       1kB time=00:00:00.62 bitrate=   9.4kbits/s speed=0.0384x    frame=   92 fps=5.2 q=59.0 size=       1kB time=00:00:00.79 bitrate=   7.4kbits/s speed=0.0446x    frame=   94 fps=5.1 q=59.0 size=       1kB time=00:00:00.87 bitrate=   6.7kbits/s speed=0.0472x    frame=   97 fps=5.1 q=59.0 size=       1kB time=00:00:01.00 bitrate=   5.9kbits/s speed=0.0522x    frame=   98 fps=5.0 q=59.0 size=       1kB time=00:00:01.04 bitrate=   5.6kbits/s speed=0.0529x    frame=  100 fps=4.9 q=60.0 size=       1kB time=00:00:01.12 bitrate=   5.2kbits/s speed=0.0557x    frame=  102 fps=4.9 q=60.0 size=       1kB time=00:00:01.20 bitrate=   4.9kbits/s speed=0.0577x    frame=  104 fps=4.8 q=60.0 size=       1kB time=00:00:01.29 bitrate=   4.6kbits/s speed=0.0594x    frame=  106 fps=4.7 q=60.0 size=       1kB time=00:00:01.37 bitrate=   4.3kbits/s speed=0.0612x    frame=  108 fps=4.7 q=60.0 size=       1kB time=00:00:01.45 bitrate=   4.0kbits/s speed=0.0629x    frame=  111 fps=4.6 q=60.0 size=       1kB time=00:00:01.58 bitrate=   3.7kbits/s speed=0.0657x    frame=  114 fps=4.6 q=60.0 size=       1kB time=00:00:01.70 bitrate=   3.4kbits/s speed=0.0691x    frame=  116 fps=4.6 q=60.0 size=       1kB time=00:00:01.79 bitrate=   3.3kbits/s speed=0.0711x    frame=  119 fps=4.5 q=60.0 size=       1kB time=00:00:01.91 bitrate=   3.1kbits/s speed=0.073x    frame=  121 fps=4.5 q=60.0 size=       1kB time=00:00:02.00 bitrate=   2.9kbits/s speed=0.0744x    frame=  123 fps=4.5 q=60.0 size=       1kB time=00:00:02.08 bitrate=   2.8kbits/s speed=0.0755x    frame=  125 fps=4.4 q=60.0 size=       1kB time=00:00:02.16 bitrate=   2.7kbits/s speed=0.0767x    frame=  127 fps=4.4 q=61.0 size=       1kB time=00:00:02.25 bitrate=   2.6kbits/s speed=0.0777x    frame=  129 fps=4.3 q=61.0 size=       1kB time=00:00:02.33 bitrate=   2.5kbits/s speed=0.0784x    frame=  130 fps=4.3 q=61.0 size=       1kB time=00:00:02.37 bitrate=   2.5kbits/s speed=0.0784x    frame=  132 fps=4.3 q=61.0 size=       1kB time=00:00:02.45 bitrate=   2.4kbits/s speed=0.0792x    frame=  133 fps=4.2 q=61.0 size=       1kB time=00:00:02.50 bitrate=   2.4kbits/s speed=0.0792x    frame=  136 fps=4.2 q=61.0 size=       1kB time=00:00:02.62 bitrate=   2.2kbits/s speed=0.0808x    frame=  137 fps=4.1 q=61.0 size=       1kB time=00:00:02.66 bitrate=   2.2kbits/s speed=0.0808x    frame=  139 fps=4.1 q=61.0 size=       1kB time=00:00:02.75 bitrate=   2.1kbits/s speed=0.0814x    frame=  141 fps=4.1 q=61.0 size=       1kB time=00:00:02.83 bitrate=   2.1kbits/s speed=0.0819x    frame=  143 fps=4.1 q=61.0 size=       1kB time=00:00:02.91 bitrate=   2.0kbits/s speed=0.0828x    frame=  145 fps=4.0 q=61.0 size=       1kB time=00:00:03.00 bitrate=   2.0kbits/s speed=0.0834x    frame=  147 fps=4.0 q=61.0 size=       1kB time=00:00:03.08 bitrate=   1.9kbits/s speed=0.0843x    frame=  149 fps=4.0 q=61.0 size=       1kB time=00:00:03.16 bitrate=   1.9kbits/s speed=0.0852x    frame=  150 fps=4.0 q=61.0 size=       1kB time=00:00:03.20 bitrate=   1.8kbits/s speed=0.0846x    frame=  152 fps=3.9 q=61.0 size=       1kB time=00:00:03.29 bitrate=   1.8kbits/s speed=0.0852x    frame=  154 fps=3.9 q=62.0 size=       1kB time=00:00:03.37 bitrate=   1.7kbits/s speed=0.086x    frame=  156 fps=3.9 q=62.0 size=       1kB time=00:00:03.45 bitrate=   1.7kbits/s speed=0.0865x    frame=  158 fps=3.9 q=62.0 size=       1kB time=00:00:03.54 bitrate=   1.7kbits/s speed=0.0865x    frame=  160 fps=3.8 q=62.0 size=       1kB time=00:00:03.62 bitrate=   1.6kbits/s speed=0.0866x    frame=  162 fps=3.8 q=62.0 size=       1kB time=00:00:03.70 bitrate=   1.6kbits/s speed=0.087x    frame=  165 fps=3.8 q=62.0 size=       1kB time=00:00:03.83 bitrate=   1.5kbits/s speed=0.0879x    frame=  167 fps=3.8 q=62.0 size=       1kB time=00:00:03.91 bitrate=   1.5kbits/s speed=0.0885x    frame=  170 fps=3.8 q=62.0 size=       1kB time=00:00:04.04 bitrate=   1.5kbits/s speed=0.0903x    frame=  172 fps=3.8 q=62.0 size=       1kB time=00:00:04.12 bitrate=   1.4kbits/s speed=0.0907x    frame=  174 fps=3.8 q=62.0 size=       1kB time=00:00:04.20 bitrate=   1.4kbits/s speed=0.0915x    frame=  177 fps=3.8 q=62.0 size=       1kB time=00:00:04.33 bitrate=   1.4kbits/s speed=0.0927x    frame=  181 fps=3.8 q=59.0 size=       1kB time=00:00:04.50 bitrate=   1.3kbits/s speed=0.0943x    frame=  184 fps=3.8 q=62.0 size=       1kB time=00:00:04.62 bitrate=   1.3kbits/s speed=0.0958x    frame=  190 fps=3.9 q=61.0 size=    1072kB time=00:00:04.87 bitrate=1800.9kbits/s speed=0.0997x    frame=  194 fps=3.9 q=61.0 size=    1072kB time=00:00:05.04 bitrate=1741.3kbits/s speed=0.102x    frame=  196 fps=3.9 q=61.0 size=    1072kB time=00:00:05.12 bitrate=1713.1kbits/s speed=0.102x    frame=  197 fps=3.9 q=61.0 size=    1072kB time=00:00:05.16 bitrate=1699.1kbits/s speed=0.101x    frame=  199 fps=3.8 q=62.0 size=    1072kB time=00:00:05.25 bitrate=1672.3kbits/s speed=0.102x    frame=  201 fps=3.8 q=62.0 size=    1072kB time=00:00:05.33 bitrate=1646.3kbits/s speed=0.102x    frame=  203 fps=3.8 q=62.0 size=    1072kB time=00:00:05.41 bitrate=1620.7kbits/s speed=0.102x    frame=  205 fps=3.8 q=62.0 size=    1072kB time=00:00:05.50 bitrate=1596.3kbits/s speed=0.102x    frame=  207 fps=3.8 q=62.0 size=    1072kB time=00:00:05.58 bitrate=1572.6kbits/s speed=0.102x    frame=  209 fps=3.8 q=62.0 size=    1072kB time=00:00:05.66 bitrate=1549.2kbits/s speed=0.102x    frame=  211 fps=3.8 q=62.0 size=    1072kB time=00:00:05.75 bitrate=1526.9kbits/s speed=0.103x    frame=  214 fps=3.8 q=63.0 size=    1072kB time=00:00:05.87 bitrate=1494.4kbits/s speed=0.104x    frame=  216 fps=3.8 q=63.0 size=    1072kB time=00:00:05.95 bitrate=1473.6kbits/s speed=0.104x    frame=  219 fps=3.8 q=63.0 size=    1072kB time=00:00:06.08 bitrate=1443.3kbits/s speed=0.105x    frame=  222 fps=3.8 q=63.0 size=    1072kB time=00:00:06.20 bitrate=1414.3kbits/s speed=0.105x    frame=  228 fps=3.7 q=63.0 size=    1072kB time=00:00:06.45 bitrate=1359.5kbits/s speed=0.106x    frame=  231 fps=3.8 q=63.0 size=    1072kB time=00:00:06.58 bitrate=1333.7kbits/s speed=0.107x    frame=  233 fps=3.7 q=63.0 size=    1072kB time=00:00:06.66 bitrate=1316.9kbits/s speed=0.107x    frame=  234 fps=3.7 q=63.0 size=    1072kB time=00:00:06.70 bitrate=1308.9kbits/s speed=0.107x    frame=  236 fps=3.7 q=63.0 size=    1072kB time=00:00:06.79 bitrate=1292.7kbits/s speed=0.107x    frame=  238 fps=3.7 q=63.0 size=    1072kB time=00:00:06.87 bitrate=1277.1kbits/s speed=0.107x    frame=  240 fps=3.7 q=63.0 size=    1072kB time=00:00:06.95 bitrate=1261.8kbits/s speed=0.108x    frame=  242 fps=3.7 q=63.0 size=    1072kB time=00:00:07.04 bitrate=1246.8kbits/s speed=0.108x    frame=  244 fps=3.7 q=63.0 size=    1072kB time=00:00:07.12 bitrate=1232.3kbits/s speed=0.108x    frame=  246 fps=3.7 q=63.0 size=    1072kB time=00:00:07.20 bitrate=1218.1kbits/s speed=0.108x    frame=  249 fps=3.7 q=60.0 size=    1072kB time=00:00:07.33 bitrate=1197.3kbits/s speed=0.108x    frame=  253 fps=3.7 q=63.0 size=    1072kB time=00:00:07.50 bitrate=1170.7kbits/s speed=0.11x    frame=  260 fps=3.8 q=63.0 size=    1648kB time=00:00:07.79 bitrate=1732.8kbits/s speed=0.113x    frame=  264 fps=3.8 q=62.0 size=    1648kB time=00:00:07.95 bitrate=1696.7kbits/s speed=0.114x    frame=  267 fps=3.8 q=62.0 size=    1648kB time=00:00:08.08 bitrate=1670.4kbits/s speed=0.114x    frame=  269 fps=3.8 q=62.0 size=    1648kB time=00:00:08.16 bitrate=1653.2kbits/s speed=0.114x    frame=  271 fps=3.8 q=62.0 size=    1648kB time=00:00:08.25 bitrate=1636.6kbits/s speed=0.115x    frame=  273 fps=3.8 q=63.0 size=    1648kB time=00:00:08.33 bitrate=1620.3kbits/s speed=0.115x    frame=  276 fps=3.8 q=63.0 size=    1648kB time=00:00:08.45 bitrate=1596.4kbits/s speed=0.115x    frame=  279 fps=3.8 q=63.0 size=    1648kB time=00:00:08.58 bitrate=1573.1kbits/s speed=0.115x    frame=  283 fps=3.8 q=63.0 size=    1648kB time=00:00:08.75 bitrate=1543.1kbits/s speed=0.117x    frame=  287 fps=3.8 q=62.0 size=    1648kB time=00:00:08.91 bitrate=1514.2kbits/s speed=0.117x    frame=  292 fps=3.8 q=62.0 size=    1648kB time=00:00:09.12 bitrate=1479.7kbits/s speed=0.119x    frame=  293 fps=3.8 q=62.0 size=    1648kB time=00:00:09.16 bitrate=1472.9kbits/s speed=0.119x    frame=  298 fps=3.8 q=62.0 size=    1648kB time=00:00:09.37 bitrate=1440.2kbits/s speed=0.121x    frame=  301 fps=3.8 q=62.0 size=    1648kB time=00:00:09.50 bitrate=1421.3kbits/s speed=0.121x    frame=  307 fps=3.9 q=62.0 size=    1648kB time=00:00:09.75 bitrate=1384.9kbits/s speed=0.122x    frame=  311 fps=3.9 q=61.0 size=    1648kB time=00:00:09.91 bitrate=1361.5kbits/s speed=0.123x    frame=  313 fps=3.9 q=61.0 size=    1648kB time=00:00:10.00 bitrate=1350.2kbits/s speed=0.123x    frame=  316 fps=3.9 q=61.0 size=    1648kB time=00:00:10.12 bitrate=1333.6kbits/s speed=0.124x    frame=  319 fps=3.9 q=61.0 size=    1648kB time=00:00:10.25 bitrate=1317.3kbits/s speed=0.125x    frame=  320 fps=3.9 q=61.0 size=    1648kB time=00:00:10.29 bitrate=1311.9kbits/s speed=0.124x    frame=  326 fps=3.9 q=61.0 size=    1648kB time=00:00:10.54 bitrate=1280.8kbits/s speed=0.126x    frame=  327 fps=3.9 q=61.0 size=    1648kB time=00:00:10.58 bitrate=1275.9kbits/s speed=0.126x    frame=  334 fps=3.9 q=61.0 size=    1648kB time=00:00:10.87 bitrate=1241.6kbits/s speed=0.128x    frame=  341 fps=4.0 q=61.0 size=    2086kB time=00:00:11.16 bitrate=1530.3kbits/s speed=0.13x    frame=  348 fps=4.0 q=60.0 size=    2086kB time=00:00:11.45 bitrate=1491.4kbits/s speed=0.132x    frame=  355 fps=4.1 q=60.0 size=    2086kB time=00:00:11.75 bitrate=1454.3kbits/s speed=0.134x    frame=  360 fps=4.1 q=60.0 size=    2086kB time=00:00:11.95 bitrate=1429.1kbits/s speed=0.136x    frame=  367 fps=4.1 q=60.0 size=    2086kB time=00:00:12.25 bitrate=1395.0kbits/s speed=0.138x    frame=  373 fps=4.2 q=59.0 size=    2086kB time=00:00:12.50 bitrate=1367.1kbits/s speed=0.14x    frame=  378 fps=4.2 q=59.0 size=    2086kB time=00:00:12.70 bitrate=1344.7kbits/s speed=0.141x    frame=  384 fps=4.2 q=58.0 size=    2086kB time=00:00:12.95 bitrate=1318.8kbits/s speed=0.143x    frame=  391 fps=4.3 q=58.0 size=    2086kB time=00:00:13.25 bitrate=1289.7kbits/s speed=0.145x    frame=  396 fps=4.3 q=58.0 size=    2086kB time=00:00:13.45 bitrate=1269.8kbits/s speed=0.146x    frame=  402 fps=4.3 q=57.0 size=    2086kB time=00:00:13.70 bitrate=1246.6kbits/s speed=0.148x    frame=  406 fps=4.3 q=57.0 size=    2086kB time=00:00:13.87 bitrate=1231.6kbits/s speed=0.149x    frame=  411 fps=4.4 q=57.0 size=    2086kB time=00:00:14.08 bitrate=1213.4kbits/s speed=0.15x    frame=  416 fps=4.4 q=57.0 size=    2086kB time=00:00:14.29 bitrate=1195.7kbits/s speed=0.151x    frame=  422 fps=4.4 q=56.0 size=    2086kB time=00:00:14.54 bitrate=1175.1kbits/s speed=0.153x    frame=  426 fps=4.4 q=56.0 size=    2086kB time=00:00:14.70 bitrate=1161.9kbits/s speed=0.153x    frame=  433 fps=4.5 q=55.0 size=    2328kB time=00:00:15.00 bitrate=1271.1kbits/s speed=0.155x    frame=  439 fps=4.5 q=55.0 size=    2328kB time=00:00:15.25 bitrate=1250.2kbits/s speed=0.157x    frame=  444 fps=4.5 q=55.0 size=    2328kB time=00:00:15.45 bitrate=1233.4kbits/s speed=0.158x    frame=  447 fps=4.5 q=55.0 size=    2328kB time=00:00:15.58 bitrate=1223.5kbits/s speed=0.158x    frame=  450 fps=4.5 q=55.0 size=    2328kB time=00:00:15.70 bitrate=1213.8kbits/s speed=0.159x    frame=  456 fps=4.6 q=54.0 size=    2328kB time=00:00:15.95 bitrate=1194.8kbits/s speed=0.16x    frame=  459 fps=4.6 q=54.0 size=    2328kB time=00:00:16.08 bitrate=1185.5kbits/s speed=0.161x    frame=  463 fps=4.6 q=54.0 size=    2328kB time=00:00:16.25 bitrate=1173.3kbits/s speed=0.161x    frame=  466 fps=4.6 q=54.0 size=    2328kB time=00:00:16.37 bitrate=1164.4kbits/s speed=0.161x    frame=  470 fps=4.6 q=54.0 size=    2328kB time=00:00:16.54 bitrate=1152.6kbits/s speed=0.162x    frame=  471 fps=4.6 q=54.0 size=    2328kB time=00:00:16.58 bitrate=1149.7kbits/s speed=0.161x    frame=  477 fps=4.6 q=54.0 size=    2328kB time=00:00:16.83 bitrate=1132.7kbits/s speed=0.162x    frame=  483 fps=4.6 q=54.0 size=    2328kB time=00:00:17.08 bitrate=1116.1kbits/s speed=0.164x    frame=  485 fps=4.6 q=54.0 size=    2328kB time=00:00:17.16 bitrate=1110.6kbits/s speed=0.164x    frame=  493 fps=4.7 q=54.0 size=    2596kB time=00:00:17.50 bitrate=1215.1kbits/s speed=0.166x    frame=  496 fps=4.7 q=54.0 size=    2596kB time=00:00:17.62 bitrate=1206.4kbits/s speed=0.166x    frame=  500 fps=4.7 q=54.0 size=    2596kB time=00:00:17.79 bitrate=1195.1kbits/s speed=0.167x    frame=  500 fps=4.4 q=-1.0 Lsize=    2974kB time=00:00:20.70 bitrate=1176.6kbits/s speed=0.182x    
video:2970kB audio:0kB subtitle:0kB other streams:0kB global headers:0kB muxing overhead: 0.147769%
bench: utime=397.368s
bench: maxrss=2146452kB
[libx264 @ 0x31051c0] frame I:6     Avg QP:46.47  size: 20240
[libx264 @ 0x31051c0] frame P:273   Avg QP:50.34  size:  8678
[libx264 @ 0x31051c0] frame B:221   Avg QP:49.88  size:  2489
[libx264 @ 0x31051c0] consecutive B-frames: 35.2% 11.6% 18.0% 35.2%
[libx264 @ 0x31051c0] mb I  I16..4: 19.4% 80.5%  0.1%
[libx264 @ 0x31051c0] mb P  I16..4:  7.5% 32.7%  0.0%  P16..4:  5.7%  0.0%  0.0%  0.0%  0.0%    skip:54.1%
[libx264 @ 0x31051c0] mb B  I16..4:  0.2%  0.4%  0.0%  B16..8:  7.0%  0.1%  0.0%  direct: 0.1%  skip:92.2%  L0:47.5% L1:52.1% BI: 0.3%
[libx264 @ 0x31051c0] final ratefactor: 51.68
[libx264 @ 0x31051c0] 8x8 transform intra:81.1% inter:92.8%
[libx264 @ 0x31051c0] direct mvs  spatial:97.7% temporal:2.3%
[libx264 @ 0x31051c0] coded y,uvDC,uvAC intra: 2.2% 10.1% 0.0% inter: 0.1% 0.4% 0.0%
[libx264 @ 0x31051c0] i16 v,h,dc,p: 69% 24%  2%  5%
[libx264 @ 0x31051c0] i8 v,h,dc,ddl,ddr,vr,hd,vl,hu:  8%  4% 86%  0%  0%  0%  0%  0%  0%
[libx264 @ 0x31051c0] i4 v,h,dc,ddl,ddr,vr,hd,vl,hu: 26% 11%  9% 13% 11%  8%  9%  6%  8%
[libx264 @ 0x31051c0] i8c dc,h,v,p: 99%  1%  0%  0%
[libx264 @ 0x31051c0] Weighted P-Frames: Y:1.1% UV:0.7%
[libx264 @ 0x31051c0] ref P L0: 32.8%  0.6% 25.8%  9.4%  8.5%  7.9%  8.3%  3.7%  3.1%  0.0%
[libx264 @ 0x31051c0] ref B L0: 70.9% 12.3%  8.4%  3.2%  2.6%  1.9%  0.6%
[libx264 @ 0x31051c0] ref B L1: 95.0%  5.0%
[libx264 @ 0x31051c0] kb/s:1167.57
